<svg width="512" height="512" viewBox="0 0 512 512" fill="none" xmlns="http://www.w3.org/2000/svg">
<path d="M82 368H432V480H82V368Z" stroke="black" stroke-width="5.44" stroke-linecap="round"/>
<path d="M82 350.5H432V128L381.053 126.927C356.575 126.412 337 106.421 337 81.9374V31H82V350.5Z" stroke="black" stroke-width="5.44" stroke-linecap="round"/>
<path d="M419.5 111L352 45.5C350.333 55.3333 349.6 79.4 360 97C370.4 114.6 404 113.667 419.5 111Z" stroke="black" stroke-width="5.44" stroke-linecap="round"/>
<path d="M201.129 452.282C205.006 452.282 208.754 451.474 212.372 449.858C215.991 448.243 219.027 445.949 221.483 442.977L226.329 447.92C223.034 451.474 219.189 454.22 214.795 456.158C210.401 458.097 205.781 459.066 200.935 459.066C196.089 459.066 191.534 458.162 187.269 456.352C183.069 454.478 179.418 451.991 176.317 448.889C173.28 445.723 170.857 442.008 169.047 437.743C167.303 433.478 166.431 428.923 166.431 424.077C166.431 419.231 167.303 414.675 169.047 410.411C170.857 406.082 173.312 402.366 176.414 399.265C179.515 396.098 183.166 393.611 187.366 391.802C191.566 389.992 196.089 389.088 200.935 389.088C205.911 389.088 210.627 390.057 215.086 391.995C219.544 393.934 223.357 396.68 226.523 400.234L221.58 405.371C219.06 402.398 215.958 400.072 212.275 398.392C208.592 396.712 204.812 395.872 200.935 395.872C197.123 395.872 193.569 396.615 190.274 398.102C186.978 399.523 184.135 401.494 181.744 404.014C179.354 406.534 177.447 409.538 176.026 413.028C174.669 416.452 173.991 420.135 173.991 424.077C173.991 428.018 174.669 431.734 176.026 435.223C177.447 438.648 179.354 441.62 181.744 444.14C184.135 446.66 186.978 448.663 190.274 450.149C193.634 451.571 197.252 452.282 201.129 452.282ZM234.989 447.435L239.545 442.008C243.615 445.82 247.428 448.534 250.982 450.149C254.6 451.765 258.606 452.572 263 452.572C268.234 452.572 272.563 451.28 275.988 448.695C279.412 446.046 281.125 442.783 281.125 438.906C281.125 435.546 279.962 432.962 277.635 431.152C275.374 429.343 271.497 427.954 266.005 426.985L255.052 425.143C248.849 424.045 244.294 422.171 241.386 419.522C238.543 416.808 237.122 413.189 237.122 408.666C237.122 402.98 239.286 398.328 243.615 394.709C247.945 391.091 253.534 389.282 260.383 389.282C265.423 389.282 270.108 389.992 274.437 391.414C278.766 392.771 283.031 394.935 287.231 397.908L283.354 403.723C279.865 401.138 276.149 399.135 272.208 397.714C268.331 396.292 264.422 395.582 260.48 395.582C255.763 395.582 251.886 396.777 248.849 399.168C245.812 401.494 244.294 404.402 244.294 407.891C244.294 410.863 245.295 413.189 247.298 414.869C249.302 416.549 252.565 417.745 257.088 418.455L267.943 420.297C275.115 421.589 280.349 423.689 283.645 426.597C286.94 429.505 288.588 433.478 288.588 438.518C288.588 441.426 287.942 444.14 286.649 446.66C285.357 449.18 283.548 451.345 281.222 453.154C278.96 454.963 276.246 456.385 273.08 457.418C269.914 458.452 266.489 458.969 262.806 458.969C257.508 458.969 252.565 458.032 247.977 456.158C243.454 454.22 239.125 451.312 234.989 447.435ZM296.323 447.435L300.879 442.008C304.95 445.82 308.762 448.534 312.316 450.149C315.934 451.765 319.94 452.572 324.334 452.572C329.568 452.572 333.897 451.28 337.322 448.695C340.746 446.046 342.459 442.783 342.459 438.906C342.459 435.546 341.296 432.962 338.97 431.152C336.708 429.343 332.831 427.954 327.339 426.985L316.386 425.143C310.183 424.045 305.628 422.171 302.72 419.522C299.877 416.808 298.456 413.189 298.456 408.666C298.456 402.98 300.62 398.328 304.95 394.709C309.279 391.091 314.868 389.282 321.717 389.282C326.757 389.282 331.442 389.992 335.771 391.414C340.1 392.771 344.365 394.935 348.565 397.908L344.688 403.723C341.199 401.138 337.483 399.135 333.542 397.714C329.665 396.292 325.756 395.582 321.814 395.582C317.097 395.582 313.22 396.777 310.183 399.168C307.146 401.494 305.628 404.402 305.628 407.891C305.628 410.863 306.63 413.189 308.633 414.869C310.636 416.549 313.899 417.745 318.422 418.455L329.277 420.297C336.45 421.589 341.683 423.689 344.979 426.597C348.274 429.505 349.922 433.478 349.922 438.518C349.922 441.426 349.276 444.14 347.983 446.66C346.691 449.18 344.882 451.345 342.556 453.154C340.294 454.963 337.58 456.385 334.414 457.418C331.248 458.452 327.823 458.969 324.14 458.969C318.842 458.969 313.899 458.032 309.311 456.158C304.788 454.22 300.459 451.312 296.323 447.435Z" fill="black"/>
<path d="M212.5 277V128.5" stroke="black" stroke-width="5.44" stroke-linecap="round"/>
<path d="M295 277V128.5" stroke="black" stroke-width="5.44" stroke-linecap="round"/>
<path d="M179.5 161.5L328 161.5" stroke="black" stroke-width="5.44" stroke-linecap="round"/>
<path d="M179.5 244L328 244" stroke="black" stroke-width="5.44" stroke-linecap="round"/>
</svg>
