<svg width="512" height="512" viewBox="0 0 512 512" fill="none" xmlns="http://www.w3.org/2000/svg">
<path d="M380.5 220C379.833 203 364.542 174 308 174C249.5 174 239.5 206.333 240.5 220C240.5 270.5 384.5 240.5 384.5 300.5C385.333 315 371.2 344.3 308 345.5C244.8 346.7 231.333 314.333 232.5 298" stroke="black" stroke-width="5.44" stroke-linecap="round"/>
<path d="M182.5 173.5C182.5 227.833 182.5 341.6 182.5 362C182.5 387.5 178 415 145 417C118.6 418.6 72.6667 387.333 53 371.5V138.5L253.5 22.5L458 138.5V371.5L257.5 492L199 458.5" stroke="black" stroke-width="5.44" stroke-linecap="round"/>
</svg>
