<svg width="512" height="512" viewBox="0 0 512 512" fill="none" xmlns="http://www.w3.org/2000/svg">
<circle cx="256" cy="256" r="253.28" stroke="black" stroke-width="5.44"/>
<path d="M204.5 502C199.667 459.5 197.1 371.9 225.5 361.5C141.5 334.5 119.5 307.5 117 253.5C115 210.3 136.167 184.167 147 176.5C140.333 164.167 131 133.5 147 109.5C166.6 109.5 193.5 125.167 204.5 133C214.333 130.167 240.3 124.4 265.5 124" stroke="black" stroke-width="5.44" stroke-linecap="round"/>
<path d="M327 502C331.833 459.5 334.4 371.9 306 361.5C390 334.5 412 307.5 414.5 253.5C416.5 210.3 395.333 184.167 384.5 176.5C391.167 164.167 400.5 133.5 384.5 109.5C364.9 109.5 338 125.167 327 133C317.167 130.167 291.2 124.4 266 124" stroke="black" stroke-width="5.44" stroke-linecap="round"/>
<path d="M200 409C187.833 415.5 158.6 421.2 139 392C119.4 362.8 102.833 360.833 97 363.5" stroke="black" stroke-width="5.44" stroke-linecap="round"/>
</svg>
