<svg width="512" height="512" viewBox="0 0 512 512" fill="none" xmlns="http://www.w3.org/2000/svg">
<path d="M82 368H432V480H82V368Z" stroke="black" stroke-width="5.44" stroke-linecap="round"/>
<path d="M82 350.5H432V128L381.053 126.927C356.575 126.412 337 106.421 337 81.9374V31H82V350.5Z" stroke="black" stroke-width="5.44" stroke-linecap="round"/>
<path d="M419.5 111L352 45.5C350.333 55.3333 349.6 79.4 360 97C370.4 114.6 404 113.667 419.5 111Z" stroke="black" stroke-width="5.44" stroke-linecap="round"/>
<path d="M187 148.5C178.667 148.167 163.2 154.2 168 181C172.8 207.8 159.333 216.167 152 217" stroke="black" stroke-width="5.44" stroke-linecap="round"/>
<path d="M187 285.5C178.667 285.833 163.2 279.8 168 253C172.8 226.2 159.333 217.833 152 217" stroke="black" stroke-width="5.44" stroke-linecap="round"/>
<path d="M325 148.5C333.333 148.167 348.8 154.2 344 181C339.2 207.8 352.667 216.167 360 217" stroke="black" stroke-width="5.44" stroke-linecap="round"/>
<path d="M325 285.5C333.333 285.833 348.8 279.8 344 253C339.2 226.2 352.667 217.833 360 217" stroke="black" stroke-width="5.44" stroke-linecap="round"/>
<circle cx="224" cy="216" r="5" fill="black"/>
<circle cx="256" cy="216" r="5" fill="black"/>
<circle cx="288" cy="216" r="5" fill="black"/>
<path d="M249.133 432.412C249.133 440.554 246.871 447.048 242.348 451.894C237.825 456.675 231.751 459.066 224.127 459.066C218.376 459.066 213.368 457.548 209.104 454.511C204.904 451.409 201.867 447.145 199.993 441.717L206.777 439.003C208.393 443.332 210.654 446.628 213.562 448.889C216.47 451.151 220.024 452.282 224.224 452.282C229.457 452.282 233.657 450.472 236.824 446.854C240.054 443.235 241.67 438.389 241.67 432.315V390.154H249.133V432.412ZM259.078 447.435L263.633 442.008C267.704 445.82 271.516 448.534 275.07 450.149C278.689 451.765 282.695 452.572 287.089 452.572C292.323 452.572 296.652 451.28 300.076 448.695C303.501 446.046 305.213 442.783 305.213 438.906C305.213 435.546 304.05 432.962 301.724 431.152C299.463 429.343 295.586 427.954 290.093 426.985L279.141 425.143C272.938 424.045 268.383 422.171 265.475 419.522C262.632 416.808 261.21 413.189 261.21 408.666C261.21 402.98 263.375 398.328 267.704 394.709C272.033 391.091 277.623 389.282 284.472 389.282C289.512 389.282 294.196 389.992 298.526 391.414C302.855 392.771 307.12 394.935 311.32 397.908L307.443 403.723C303.953 401.138 300.238 399.135 296.296 397.714C292.42 396.292 288.51 395.582 284.569 395.582C279.852 395.582 275.975 396.777 272.938 399.168C269.901 401.494 268.383 404.402 268.383 407.891C268.383 410.863 269.384 413.189 271.387 414.869C273.39 416.549 276.653 417.745 281.176 418.455L292.032 420.297C299.204 421.589 304.438 423.689 307.733 426.597C311.029 429.505 312.676 433.478 312.676 438.518C312.676 441.426 312.03 444.14 310.738 446.66C309.446 449.18 307.636 451.345 305.31 453.154C303.049 454.963 300.335 456.385 297.169 457.418C294.003 458.452 290.578 458.969 286.895 458.969C281.596 458.969 276.653 458.032 272.066 456.158C267.543 454.22 263.213 451.312 259.078 447.435Z" fill="black"/>
</svg>
