<svg width="512" height="512" viewBox="0 0 512 512" fill="none" xmlns="http://www.w3.org/2000/svg">
<path d="M142.793 59.9695C197.513 28.3767 293.993 151.022 330.266 213.849M142.5 59.4628C87.7797 91.0556 145.753 235.932 182.026 298.759C218.299 361.586 314.78 484.231 369.5 452.638M369.207 452.132C423.928 420.539 365.954 275.662 329.681 212.835" stroke="white" stroke-width="5.43811"/>
<path d="M369.207 59.9695C314.487 28.3767 218.007 151.022 181.734 213.849M369.5 59.4628C424.22 91.0556 366.247 235.932 329.974 298.759C293.701 361.586 197.22 484.231 142.5 452.638M142.793 452.132C88.0722 420.539 146.046 275.662 182.319 212.835" stroke="white" stroke-width="5.43811"/>
<path d="M482.415 256.051C482.415 192.865 327.961 170.633 255.415 170.633M483 256.051C483 319.236 328.546 341.468 256 341.468C183.454 341.468 29 319.236 29 256.051M29.5851 256.051C29.5851 192.865 184.039 170.633 256.585 170.633" stroke="white" stroke-width="5.43811"/>
<circle r="18.7446" transform="matrix(-1 0 0 1 259.51 257.221)" fill="white"/>
</svg>
